<svg width="900" height="138" viewBox="0 0 900 138" fill="none" xmlns="http://www.w3.org/2000/svg">
<path d="M0 138L9.3 124.7C18.7 111.3 37.3 84.7 56.2 70.5C75 56.3 94 54.7 112.8 54.3C131.7 54 150.3 55 169 62.2C187.7 69.3 206.3 82.7 225 95C243.7 107.3 262.3 118.7 281.2 108.7C300 98.7 319 67.3 337.8 69.7C356.7 72 375.3 108 394 110.5C412.7 113 431.3 82 450 73.5C468.7 65 487.3 79 506.2 85.7C525 92.3 544 91.7 562.8 88.2C581.7 84.7 600.3 78.3 619 67.7C637.7 57 656.3 42 675 45C693.7 48 712.3 69 731.2 84.5C750 100 769 110 787.8 115.7C806.7 121.3 825.3 122.7 844 107.2C862.7 91.7 881.3 59.3 890.7 43.2L900 27V0H890.7C881.3 0 862.7 0 844 0C825.3 0 806.7 0 787.8 0C769 0 750 0 731.2 0C712.3 0 693.7 0 675 0C656.3 0 637.7 0 619 0C600.3 0 581.7 0 562.8 0C544 0 525 0 506.2 0C487.3 0 468.7 0 450 0C431.3 0 412.7 0 394 0C375.3 0 356.7 0 337.8 0C319 0 300 0 281.2 0C262.3 0 243.7 0 225 0C206.3 0 187.7 0 169 0C150.3 0 131.7 0 112.8 0C94 0 75 0 56.2 0C37.3 0 18.7 0 9.3 0H0V138Z" fill="#141211"/>
</svg>
